<svg id="visual" viewBox="0 0 900 600" width="900" height="600" xmlns="http://www.w3.org/2000/svg" xmlns:xlink="http://www.w3.org/1999/xlink" version="1.1"><rect x="0" y="0" width="900" height="600" fill="#001220"></rect><defs><linearGradient id="grad1_0" x1="33.3%" y1="0%" x2="100%" y2="100%"><stop offset="20%" stop-color="#001220" stop-opacity="1"></stop><stop offset="80%" stop-color="#001220" stop-opacity="1"></stop></linearGradient></defs><defs><linearGradient id="grad2_0" x1="0%" y1="0%" x2="66.7%" y2="100%"><stop offset="20%" stop-color="#001220" stop-opacity="1"></stop><stop offset="80%" stop-color="#001220" stop-opacity="1"></stop></linearGradient></defs><g transform="translate(900, 0)"><path d="M0 486.7C-55.1 448.8 -110.2 410.8 -157.3 379.7C-204.4 348.6 -243.5 324.4 -296.3 296.3C-349.1 268.2 -415.7 236.3 -449.7 186.3C-483.7 136.3 -485.2 68.1 -486.7 0L0 0Z" fill="#FBAE3C"></path></g><g transform="translate(0, 600)"><path d="M0 -486.7C58 -454.5 115.9 -422.3 161.1 -389C206.3 -355.6 238.8 -321 290.6 -290.6C342.5 -260.2 413.8 -234 449.7 -186.3C485.6 -138.5 486.2 -69.3 486.7 0L0 0Z" fill="#FBAE3C"></path></g></svg>